<svg width="160" height="160" viewBox="0 0 160 160" fill="none" xmlns="http://www.w3.org/2000/svg">
<rect width="160" height="160" fill="#B19CD9"/>
<path d="M115 68.8375H92.5V73.8375H115V68.8375ZM115 88.8375H92.5V93.8375H115V88.8375ZM73.85 78.8375L65 69.9875L68.525 66.4625L73.825 71.7625L84.425 61.1625L87.95 64.6875L73.85 78.8375ZM73.85 98.8375L65 89.9875L68.525 86.4625L73.825 91.7625L84.425 81.1625L87.95 84.6875L73.85 98.8375Z" fill="white"/>
<path d="M102.5 25H42.5C37 25 32.5 29.5 32.5 35V105H42.5V35H102.5V25ZM117.5 45H62.5C57 45 52.5 49.5 52.5 55V125C52.5 130.5 57 135 62.5 135H117.5C123 135 127.5 130.5 127.5 125V55C127.5 49.5 123 45 117.5 45ZM117.5 125H62.5V55H117.5V125Z" fill="white"/>
</svg>
